:SAMPLES-PER-SECOND 30
:FULLY-SPECIFIED
:DEGREES
826
root  49.8547 36.4307 -7.28807 -158.758 -72.4379 153.627
RightUpLeg  3.47349 2.37299 -12.4014
RightLeg  54.4501 2.89796 3.94668
RightFoot  -4.60986 -0.492536 12.387
RightToes  -2.9104e-010 0 -3.6325e-017
Spine  13.0923 2.56135 -1.03513
Spine1  3.324 3.43744 -5.80961
HEad  2.58161 -40.3198 2.71313
LeftShoulder1  -0.38886 4.53015 -31.7946
LeftArm  -7.66386 15.2186 -33.5964
LeftForeArm  27.0628 -7.65939 -6.37259
LeftHand  -0.0889193 7.98504 -1.95269
RightShoulder  -0.999193 -6.20028 30.4799
RightArm  26.0267 -4.27459 50.6706
RightForeArm  -0.0598197 29.4447 6.4035
RightHand  -0.327312 6.05118 -3.64755
LeftUpLeg  -24.7116 5.99988 -4.92084
LeftLeg  28.9145 -4.93587 -2.59269
LeftFoot  -0.632863 -0.0295535 0.335362
LeftToes  -3.37426e-010 -1.91496e-010 5.23909e-011
827
root  48.6708 36.4399 -7.35609 -158.1 -71.376 152.386
RightUpLeg  -3.75331 0.784991 -13.8748
RightLeg  64.8196 1.88001 3.78669
RightFoot  7.57747 -0.454937 2.37232
RightToes  -2.9104e-010 0 -3.6325e-017
Spine  14.2704 2.52361 -2.57062
Spine1  3.83872 3.10238 -5.42218
HEad  1.31373 -39.4223 3.01074
LeftShoulder1  -0.250224 4.16323 -31.7647
LeftArm  -7.29498 10.9986 -34.9505
LeftForeArm  28.8605 -6.54912 -6.82203
LeftHand  -0.0859358 8.98791 -1.09673
RightShoulder  -0.905555 -5.98485 29.9124
RightArm  26.2146 -2.70913 51.7171
RightForeArm  -2.05361 28.4346 6.26371
RightHand  -0.366118 6.28374 -3.9735
LeftUpLeg  -23.1886 6.62882 -5.89455
LeftLeg  31.0897 -4.44059 -2.52431
LeftFoot  -3.59123 -0.0692818 1.33272
LeftToes  -3.37426e-010 -1.91496e-010 5.23909e-011
828
root  47.5477 36.5016 -7.43405 -159.147 -70.5874 152.821
RightUpLeg  -9.42997 -1.28531 -14.3034
RightLeg  70.427 1.51827 3.97159
RightFoot  2.72826 -0.597727 4.98842
RightToes  -2.9104e-010 0 -3.6325e-017
Spine  15.8601 2.25278 -3.24798
Spine1  3.90691 2.62004 -5.16259
HEad  -0.263394 -38.3508 3.88831
LeftShoulder1  -0.188189 4.00713 -31.25
LeftArm  -6.91576 6.5265 -36.9108
LeftForeArm  29.4075 -6.42822 -7.27793
LeftHand  -0.065852 9.07192 -0.557502
RightShoulder  -0.961282 -6.12163 30.1469
RightArm  26.5737 -0.748797 51.7214
RightForeArm  -2.11119 28.5223 6.28841
RightHand  -0.381188 6.91873 -3.93959
LeftUpLeg  -21.2693 7.1543 -6.19842
LeftLeg  32.5609 -3.98379 -2.37139
LeftFoot  -6.20433 -0.0560808 2.07828
LeftToes  -3.37426e-010 -1.91496e-010 5.23909e-011
829
root  46.4633 36.6504 -7.54504 -160.96 -69.4603 154.657
RightUpLeg  -15.4589 -3.70639 -13.5504
RightLeg  71.4404 1.63751 4.58908
RightFoot  1.0113 -0.760368 7.06558
RightToes  -2.9104e-010 0 -3.6325e-017
Spine  17.1851 2.04025 -4.00573
Spine1  3.37433 2.05237 -4.30851
HEad  -1.20618 -36.6449 4.01843
LeftShoulder1  -0.225935 4.10002 -31.7364
LeftArm  -6.57393 2.06942 -38.5019
LeftForeArm  28.9642 -7.15672 -7.6238
LeftHand  -0.00713668 9.56264 1.20181
RightShoulder  -0.878498 -5.91652 29.8141
RightArm  25.399 0.462944 51.6914
RightForeArm  -0.853059 29.1636 6.37918
RightHand  -0.381758 6.95287 -3.93964
LeftUpLeg  -19.544 8.31674 -6.10147
LeftLeg  33.1771 -3.81697 -2.30904
LeftFoot  -8.32402 -0.0201171 2.64964
LeftToes  -3.37426e-010 -1.91496e-010 5.23909e-011
830
root  45.3109 36.8942 -7.66799 -162.296 -68.5701 156.263
RightUpLeg  -20.5805 -6.79865 -12.0834
RightLeg  68.2195 1.66235 3.90866
RightFoot  -1.34019 -0.623575 6.97797
RightToes  -2.9104e-010 0 -3.6325e-017
Spine  17.5898 1.50327 -4.30481
Spine1  3.38661 1.37914 -3.47153
HEad  -2.26925 -34.977 4.17177
LeftShoulder1  -0.130363 3.85303 -31.2425
LeftArm  -5.29431 -1.79669 -40.769
LeftForeArm  28.5174 -9.21515 -7.77995
LeftHand  -0.012821 7.94221 1.29298
RightShoulder  -0.845568 -5.85094 29.4157
RightArm  23.7474 1.351 51.7987
RightForeArm  1.02069 30.3928 6.58286
RightHand  -0.411845 6.52813 -4.33538
LeftUpLeg  -17.3515 8.38863 -6.01926
LeftLeg  32.5992 -3.01699 -1.70618
LeftFoot  -10.178 0.0320673 2.83253
LeftToes  -3.37426e-010 -1.91496e-010 5.23909e-011
831
root  44.1618 37.1873 -7.79578 -163.861 -67.3324 158.179
RightUpLeg  -24.6237 -9.43701 -10.0336
RightLeg  61.2234 1.29714 2.08411
RightFoot  -3.55805 -0.434497 6.04116
RightToes  -2.9104e-010 0 -3.6325e-017
Spine  18.1166 0.991373 -4.67719
Spine1  2.98291 0.59596 -1.88912
HEad  -3.17884 -32.9097 3.97174
LeftShoulder1  -0.125304 3.83989 -31.1398
LeftArm  -1.8181 -5.0081 -42.6526
LeftForeArm  26.0621 -12.9224 -7.23564
LeftHand  -0.0132425 7.02097 1.70805
RightShoulder  -0.824059 -5.82027 28.961
RightArm  22.8376 2.26594 51.8084
RightForeArm  1.93158 31.368 6.78137
RightHand  -0.49563 7.36103 -4.8714
LeftUpLeg  -14.7083 8.8423 -5.93213
LeftLeg  30.9456 -2.14405 -1.0172
LeftFoot  -11.8069 0.0814103 2.66594
LeftToes  -3.37426e-010 -1.91496e-010 5.23909e-011
832
root  42.9728 37.4483 -7.96244 -165.254 -65.6751 160.133
RightUpLeg  -27.3941 -11.4371 -7.73415
RightLeg  51.0885 0.235375 -0.015598
RightFoot  -4.8599 -0.355556 5.69711
RightToes  -2.9104e-010 0 -3.6325e-017
Spine  18.2168 0.418276 -4.29958
Spine1  2.69574 0.135555 -1.65524
HEad  -3.90775 -30.7807 4.02077
LeftShoulder1  -0.101944 3.78289 -30.4467
LeftArm  3.92699 -7.34852 -44.4575
LeftForeArm  21.0578 -18.1375 -5.50663
LeftHand  -0.00881952 6.27729 2.72098
RightShoulder  -0.845622 -5.87005 29.132
RightArm  21.6138 2.67378 51.2838
RightForeArm  2.81502 32.6484 7.06554
RightHand  -0.434379 7.6613 -4.22645
LeftUpLeg  -12.1625 9.67719 -5.84261
LeftLeg  29.1853 -1.42207 -0.496425
LeftFoot  -13.3221 0.120413 2.33033
LeftToes  -3.37426e-010 -1.91496e-010 5.23909e-011
833
root  41.7705 37.6567 -8.18309 -165.739 -63.564 161.369
RightUpLeg  -29.0733 -12.999 -5.60598
RightLeg  38.7099 -1.31005 -1.40536
RightFoot  -4.6902 -0.328943 5.10665
RightToes  -2.9104e-010 0 -3.6325e-017
Spine  17.7001 0.051805 -4.4635
Spine1  2.71061 -0.238507 -1.05283
HEad  -4.28073 -28.8116 3.66654
LeftShoulder1  -0.0908672 3.75644 -29.7871
LeftArm  6.27077 -9.29088 -45.7282
LeftForeArm  19.754 -23.0229 -4.18781
LeftHand  0.00216157 6.56113 3.38709
RightShoulder  -0.833253 -5.83421 29.143
RightArm  20.9383 2.78928 50.895
RightForeArm  2.68916 33.9344 7.41955
RightHand  -0.497158 7.36291 -4.87
LeftUpLeg  -9.79935 10.5272 -6.17906
LeftLeg  27.2058 -0.278666 0.200647
LeftFoot  -14.474 0.145079 2.11948
LeftToes  -3.37426e-010 -1.91496e-010 5.23909e-011
834
root  40.5037 37.7732 -8.44769 -165.827 -61.4287 161.654
RightUpLeg  -28.7331 -14.7202 -4.01248
RightLeg  24.9863 -1.88448 -1.30325
RightFoot  -4.58286 -0.35105 5.43636
RightToes  -2.9104e-010 0 -3.6325e-017
Spine  18.2692 -0.112709 -4.77749
Spine1  1.50046 -0.576585 -0.170367
HEad  -4.16722 -26.9256 3.02994
LeftShoulder1  -0.0363844 3.60582 -29.5636
LeftArm  4.68541 -9.60064 -45.6689
LeftForeArm  22.4967 -28.8434 -4.96897
LeftHand  -0.0167107 5.66766 4.06262
RightShoulder  -0.855382 -5.88519 29.3112
RightArm  20.6696 1.92666 49.7929
RightForeArm  2.32946 35.179 7.78584
RightHand  -0.599934 8.28174 -5.4683
LeftUpLeg  -6.82745 11.2619 -6.90941
LeftLeg  25.199 1.04616 0.892305
LeftFoot  -15.6687 0.170187 2.01628
LeftToes  -3.37426e-010 -1.91496e-010 5.23909e-011
835
root  39.1508 37.7603 -8.81341 -165.949 -59.6773 161.324
RightUpLeg  -26.6307 -15.4878 -3.8029
RightLeg  12.415 -3.0305 -0.0131764
RightFoot  -4.92041 -0.451182 7.42506
RightToes  -2.9104e-010 0 -3.6325e-017
Spine  17.6214 -0.328069 -4.98131
Spine1  2.58466 -0.961224 0.583015
HEad  -4.3527 -25.4817 2.23281
LeftShoulder1  -0.088953 3.75286 -29.5767
LeftArm  3.72563 -11.2499 -46.0902
LeftForeArm  24.1596 -32.9467 -5.90323
LeftHand  -0.025083 5.35468 4.69957
RightShoulder  -0.787665 -5.72697 28.8063
RightArm  19.811 1.00434 49.7129
RightForeArm  2.52458 35.7262 7.93114
RightHand  -0.678994 7.79581 -6.32066
LeftUpLeg  -3.33819 11.8265 -7.68976
LeftLeg  23.7611 2.19115 1.40273
LeftFoot  -17.2207 0.195747 1.797
LeftToes  -3.37426e-010 -1.91496e-010 5.23909e-011
